<svg xmlns="http://www.w3.org/2000/svg" width="12" height="16" viewBox="0 0 12 16"><defs><linearGradient id="grad1" x1="0%" x2="0%" y1="0%" y2="100%"><stop offset="0%" style="stop-color:#518ffe;stop-opacity:1"/><stop offset="100%" style="stop-color:#8347d6;stop-opacity:1"/></linearGradient></defs><path fill="url(#grad1)" fill-rule="evenodd" d="M6 5H2V4h4v1zM2 8h7V7H2v1zm0 2h7V9H2v1zm0 2h7v-1H2v1zm10-7.5V14c0 .55-.45 1-1 1H1c-.55 0-1-.45-1-1V2c0-.55.45-1 1-1h7.5L12 4.5zM11 5L8 2H1v12h10V5z"/></svg>